<svg width="749" height="526" viewBox="0 0 749 526" fill="none" xmlns="http://www.w3.org/2000/svg">
<mask id="mask0_18_54" style="mask-type:alpha" maskUnits="userSpaceOnUse" x="379" y="0" width="301" height="526">
<path d="M421 0C563.766 0 679.5 117.749 679.5 263C679.5 408.251 563.766 526 421 526C406.699 526 392.669 524.817 379 522.545C501.791 502.133 595.5 393.701 595.5 263C595.5 132.299 501.791 23.8663 379 3.4541C392.669 1.18177 406.699 0 421 0Z" fill="#D9D9D9"/>
</mask>
<g mask="url(#mask0_18_54)">
<mask id="mask1_18_54" style="mask-type:alpha" maskUnits="userSpaceOnUse" x="374" y="0" width="305" height="526">
<path d="M420.5 0C563.266 0 679 117.749 679 263C679 408.251 563.266 526 420.5 526C404.8 526 389.428 524.575 374.5 521.848C495.32 499.77 587 392.278 587 263C587 133.722 495.32 26.2293 374.5 4.15137C389.428 1.42355 404.8 0 420.5 0Z" fill="#D9D9D9"/>
</mask>
<g mask="url(#mask1_18_54)">
<path d="M419.5 0C562.266 0 678 117.749 678 263C678 408.251 562.266 526 419.5 526C276.734 526 161 408.251 161 263C161 117.749 276.734 0 419.5 0Z" fill="#856931"/>
<path d="M420.5 1.5C562.413 1.5 677.5 118.553 677.5 263C677.5 407.447 562.413 524.5 420.5 524.5C278.587 524.5 163.5 407.447 163.5 263C163.5 118.553 278.587 1.5 420.5 1.5Z" fill="#856931" fill-opacity="0.6" stroke="#856931" stroke-width="3"/>
<path d="M437.57 263C437.57 253.296 429.704 245.43 420 245.43C410.296 245.43 402.43 253.296 402.43 263C402.43 272.704 410.296 280.57 420 280.57V298C400.67 298 385 282.33 385 263C385 243.67 400.67 228 420 228C439.33 228 455 243.67 455 263C455 282.33 439.33 298 420 298V280.57C429.704 280.57 437.57 272.704 437.57 263Z" fill="#624918"/>
<circle opacity="0.7" cx="420.5" cy="262.5" r="41.5" stroke="#624918" stroke-width="2"/>
<circle opacity="0.5" cx="420.5" cy="262.5" r="36.75" stroke="#624918" stroke-width="1.5"/>
<circle opacity="0.6" cx="420.5" cy="262.5" r="46.75" stroke="#624918" stroke-width="1.5"/>
<circle cx="420.5" cy="262.5" r="51.5" stroke="#624918" stroke-width="2"/>
<circle cx="420.5" cy="262.5" r="56.5" stroke="#624918" stroke-width="2"/>
<circle cx="420.5" cy="262.5" r="61.25" stroke="#624918" stroke-width="2.5"/>
<circle cx="420.5" cy="262.5" r="66.75" stroke="#624918" stroke-width="1.5"/>
<circle cx="420.5" cy="262.5" r="71.5" stroke="#624918" stroke-width="2"/>
<circle cx="420.5" cy="262.5" r="76" stroke="#624918" stroke-width="3"/>
<circle opacity="0.7" cx="420.5" cy="262.5" r="81.75" stroke="#624918" stroke-width="1.5"/>
<circle opacity="0.6" cx="420.5" cy="262.5" r="86.5" stroke="#624918" stroke-width="2"/>
<circle opacity="0.8" cx="420.5" cy="262.5" r="91.75" stroke="#624918" stroke-width="1.5"/>
<circle cx="420.5" cy="262.5" r="96.5" stroke="#624918" stroke-width="2"/>
<circle cx="420.5" cy="262.5" r="101.25" stroke="#624918" stroke-width="2.5"/>
<circle cx="420.5" cy="262.5" r="106.75" stroke="#624918" stroke-width="1.5"/>
<circle cx="420.5" cy="262.5" r="111" stroke="#624918" stroke-width="3"/>
<circle cx="420.5" cy="262.5" r="116.75" stroke="#624918" stroke-width="1.5"/>
<circle cx="420.5" cy="262.5" r="121.5" stroke="#624918" stroke-width="2"/>
<circle cx="420.5" cy="262.5" r="126.25" stroke="#624918" stroke-width="2.5"/>
<circle opacity="0.9" cx="420.5" cy="262.5" r="131.75" stroke="#624918" stroke-width="1.5"/>
<circle opacity="0.8" cx="420.5" cy="262.5" r="136" stroke="#624918" stroke-width="3"/>
<circle cx="420.5" cy="262.5" r="141.75" stroke="#624918" stroke-opacity="0.7" stroke-width="1.5"/>
<circle cx="420.5" cy="262.5" r="146.5" stroke="#624918" stroke-opacity="0.6" stroke-width="2"/>
<circle cx="420.5" cy="262.5" r="151.25" stroke="#624918" stroke-opacity="0.8" stroke-width="2.5"/>
<circle cx="420.5" cy="262.5" r="156.75" stroke="#624918" stroke-opacity="0.7" stroke-width="1.5"/>
<circle opacity="0.6" cx="420.5" cy="262.5" r="161.5" stroke="#624918" stroke-width="2"/>
<circle cx="420.5" cy="262.5" r="166.75" stroke="#624918" stroke-opacity="0.7" stroke-width="1.5"/>
<circle cx="420.5" cy="262.5" r="171" stroke="#624918" stroke-opacity="0.6" stroke-width="3"/>
<circle cx="420.5" cy="262.5" r="176.5" stroke="#624918" stroke-opacity="0.7" stroke-width="2"/>
<circle cx="420.5" cy="262.5" r="181.5" stroke="#624918" stroke-opacity="0.8" stroke-width="2"/>
<circle cx="420.5" cy="262.5" r="186.75" stroke="#624918" stroke-width="1.5"/>
<circle cx="420.5" cy="262.5" r="192" stroke="#624918"/>
<circle cx="420.5" cy="262.5" r="196.5" stroke="#624918" stroke-width="2"/>
<circle cx="420.5" cy="262.5" r="201.75" stroke="#624918" stroke-width="1.5"/>
<circle cx="420.5" cy="262.5" r="206.25" stroke="#624918" stroke-width="2.5"/>
<circle cx="420.5" cy="262.5" r="211.5" stroke="#624918" stroke-width="2"/>
<circle cx="420.5" cy="262.5" r="216" stroke="#624918" stroke-width="3"/>
<circle cx="420.5" cy="262.5" r="221.5" stroke="#624918" stroke-width="2"/>
<circle cx="420.5" cy="262.5" r="226.5" stroke="#624918" stroke-width="2"/>
<circle cx="420.5" cy="262.5" r="231.5" stroke="#624918" stroke-width="2"/>
<circle cx="420.5" cy="262.5" r="236" stroke="#624918" stroke-opacity="0.6" stroke-width="3"/>
<circle cx="420.5" cy="262.5" r="241.75" stroke="#624918" stroke-opacity="0.5" stroke-width="1.5"/>
<circle cx="420.5" cy="262.5" r="246.5" stroke="#624918" stroke-opacity="0.6" stroke-width="2"/>
<circle cx="420.5" cy="262.5" r="251.25" stroke="#624918" stroke-opacity="0.8" stroke-width="2.5"/>
<circle cx="420.5" cy="262.5" r="256.5" stroke="#624918" stroke-opacity="0.5" stroke-width="2"/>
</g>
</g>
<path d="M337.5 0C480.266 0 596 117.749 596 263C596 408.251 480.266 526 337.5 526C194.734 526 79 408.251 79 263C79 117.749 194.734 0 337.5 0ZM336.503 239.046C323.523 239.071 313.02 249.613 313.045 262.594C313.07 275.574 323.613 286.076 336.594 286.051C349.574 286.026 360.076 275.483 360.051 262.503C360.026 249.523 349.483 239.021 336.503 239.046Z" fill="#856931" fill-opacity="0.8"/>
<mask id="path-52-inside-1_18_54" fill="white">
<path d="M354.57 263C354.57 253.296 346.704 245.43 337 245.43C327.296 245.43 319.43 253.296 319.43 263C319.43 272.704 327.296 280.57 337 280.57V298C317.67 298 302 282.33 302 263C302 243.67 317.67 228 337 228C356.33 228 372 243.67 372 263C372 282.33 356.33 298 337 298V280.57C346.704 280.57 354.57 272.704 354.57 263Z"/>
</mask>
<path d="M337 280.57H313.5V298H337H360.5V280.57H337ZM354.57 263H401.57C401.57 227.339 372.661 198.43 337 198.43V245.43V292.43C320.746 292.43 307.57 279.254 307.57 263H354.57ZM337 245.43V198.43C301.339 198.43 272.43 227.339 272.43 263H319.43H366.43C366.43 279.254 353.254 292.43 337 292.43V245.43ZM319.43 263H272.43C272.43 298.661 301.339 327.57 337 327.57V280.57V233.57C353.254 233.57 366.43 246.746 366.43 263H319.43ZM337 298V251C343.627 251 349 256.373 349 263H302H255C255 308.287 291.713 345 337 345V298ZM302 263H349C349 269.627 343.627 275 337 275V228V181C291.713 181 255 217.713 255 263H302ZM337 228V275C330.373 275 325 269.627 325 263H372H419C419 217.713 382.287 181 337 181V228ZM372 263H325C325 256.373 330.373 251 337 251V298V345C382.287 345 419 308.287 419 263H372ZM337 280.57V327.57C372.661 327.57 401.57 298.661 401.57 263H354.57H307.57C307.57 246.746 320.746 233.57 337 233.57V280.57Z" fill="#624918" mask="url(#path-52-inside-1_18_54)"/>
<circle opacity="0.7" cx="337.5" cy="262.5" r="41.5" stroke="#624918" stroke-width="2"/>
<circle opacity="0.5" cx="337.5" cy="262.5" r="36.75" stroke="#624918" stroke-width="1.5"/>
<circle opacity="0.6" cx="337.5" cy="262.5" r="46.75" stroke="#624918" stroke-width="1.5"/>
<circle cx="337.5" cy="262.5" r="51.5" stroke="#624918" stroke-width="2"/>
<circle cx="337.5" cy="262.5" r="56.5" stroke="#624918" stroke-width="2"/>
<circle cx="337.5" cy="262.5" r="61.25" stroke="#624918" stroke-width="2.5"/>
<circle cx="337.5" cy="262.5" r="66.75" stroke="#624918" stroke-width="1.5"/>
<circle cx="337.5" cy="262.5" r="71.5" stroke="#624918" stroke-width="2"/>
<circle cx="337.5" cy="262.5" r="76" stroke="#624918" stroke-width="3"/>
<circle opacity="0.7" cx="337.5" cy="262.5" r="81.75" stroke="#624918" stroke-width="1.5"/>
<circle opacity="0.6" cx="337.5" cy="262.5" r="86.5" stroke="#624918" stroke-width="2"/>
<circle opacity="0.8" cx="337.5" cy="262.5" r="91.75" stroke="#624918" stroke-width="1.5"/>
<circle cx="337.5" cy="262.5" r="96.5" stroke="#624918" stroke-width="2"/>
<circle cx="337.5" cy="262.5" r="101.25" stroke="#624918" stroke-width="2.5"/>
<circle cx="337.5" cy="262.5" r="106.75" stroke="#624918" stroke-width="1.5"/>
<circle cx="337.5" cy="262.5" r="111" stroke="#624918" stroke-width="3"/>
<circle cx="337.5" cy="262.5" r="116.75" stroke="#624918" stroke-width="1.5"/>
<circle cx="337.5" cy="262.5" r="121.5" stroke="#624918" stroke-width="2"/>
<circle cx="337.5" cy="262.5" r="126.25" stroke="#624918" stroke-width="2.5"/>
<circle opacity="0.9" cx="337.5" cy="262.5" r="131.75" stroke="#624918" stroke-width="1.5"/>
<circle opacity="0.8" cx="337.5" cy="262.5" r="136" stroke="#624918" stroke-width="3"/>
<circle cx="337.5" cy="262.5" r="141.75" stroke="#624918" stroke-opacity="0.7" stroke-width="1.5"/>
<circle cx="337.5" cy="262.5" r="146.5" stroke="#624918" stroke-opacity="0.6" stroke-width="2"/>
<circle cx="337.5" cy="262.5" r="151.25" stroke="#624918" stroke-opacity="0.8" stroke-width="2.5"/>
<circle cx="337.5" cy="262.5" r="156.75" stroke="#624918" stroke-opacity="0.7" stroke-width="1.5"/>
<circle opacity="0.6" cx="337.5" cy="262.5" r="161.5" stroke="#624918" stroke-width="2"/>
<circle cx="337.5" cy="262.5" r="166.75" stroke="#624918" stroke-opacity="0.7" stroke-width="1.5"/>
<circle cx="337.5" cy="262.5" r="171" stroke="#624918" stroke-opacity="0.6" stroke-width="3"/>
<circle cx="337.5" cy="262.5" r="176.5" stroke="#624918" stroke-opacity="0.7" stroke-width="2"/>
<circle cx="337.5" cy="262.5" r="181.5" stroke="#624918" stroke-opacity="0.8" stroke-width="2"/>
<circle cx="337.5" cy="262.5" r="186.75" stroke="#624918" stroke-width="1.5"/>
<circle cx="337.5" cy="262.5" r="192" stroke="#624918"/>
<circle cx="337.5" cy="262.5" r="196.5" stroke="#624918" stroke-width="2"/>
<circle cx="337.5" cy="262.5" r="201.75" stroke="#624918" stroke-width="1.5"/>
<circle cx="337.5" cy="262.5" r="206.25" stroke="#624918" stroke-width="2.5"/>
<circle cx="337.5" cy="262.5" r="211.5" stroke="#624918" stroke-width="2"/>
<circle cx="337.5" cy="262.5" r="216" stroke="#624918" stroke-width="3"/>
<circle cx="337.5" cy="262.5" r="221.5" stroke="#624918" stroke-width="2"/>
<circle cx="337.5" cy="262.5" r="226.5" stroke="#624918" stroke-width="2"/>
<circle cx="337.5" cy="262.5" r="231.5" stroke="#624918" stroke-width="2"/>
<circle cx="337.5" cy="262.5" r="236" stroke="#624918" stroke-opacity="0.6" stroke-width="3"/>
<circle cx="337.5" cy="262.5" r="241.75" stroke="#624918" stroke-opacity="0.5" stroke-width="1.5"/>
<circle cx="337.5" cy="262.5" r="246.5" stroke="#624918" stroke-opacity="0.6" stroke-width="2"/>
<circle cx="337.5" cy="262.5" r="251.25" stroke="#624918" stroke-opacity="0.8" stroke-width="2.5"/>
<circle cx="337.5" cy="262.5" r="256.5" stroke="#624918" stroke-opacity="0.5" stroke-width="2"/>
<path d="M722.101 227.012C731.658 227.012 739.85 229.743 746.677 235.204L739.765 245.572C734.048 241.988 728.416 240.196 722.869 240.196C719.882 240.196 717.578 240.751 715.957 241.86C714.336 242.969 713.525 244.463 713.525 246.34C713.525 247.705 713.866 248.857 714.549 249.796C715.317 250.735 716.682 251.631 718.645 252.484C720.693 253.337 723.722 254.361 727.733 255.556C734.901 257.519 740.234 260.164 743.733 263.492C747.232 266.735 748.981 271.215 748.981 276.932C748.981 281.455 747.658 285.38 745.013 288.708C742.453 292.036 738.954 294.596 734.517 296.388C730.08 298.095 725.13 298.948 719.669 298.948C713.952 298.948 708.746 298.095 704.053 296.388C699.36 294.596 695.349 292.164 692.021 289.092L700.981 279.108C706.698 283.545 712.757 285.764 719.157 285.764C722.57 285.764 725.258 285.124 727.221 283.844C729.269 282.479 730.293 280.644 730.293 278.34C730.293 276.548 729.909 275.14 729.141 274.116C728.373 273.092 726.965 272.153 724.917 271.3C722.869 270.361 719.669 269.295 715.317 268.1C708.49 266.223 703.413 263.577 700.085 260.164C696.842 256.665 695.221 252.356 695.221 247.236C695.221 243.396 696.33 239.94 698.549 236.868C700.768 233.796 703.882 231.407 707.893 229.7C711.989 227.908 716.725 227.012 722.101 227.012Z" fill="white"/>
<path d="M685.395 227.14C687.443 227.14 689.704 227.481 692.179 228.164L689.107 245.7C686.718 245.103 684.712 244.804 683.091 244.804C679.08 244.804 675.966 246.212 673.747 249.028C671.528 251.844 669.779 256.111 668.499 261.828V296.9H650.323V229.06H666.067L667.731 242.244C669.352 237.465 671.699 233.753 674.771 231.108C677.928 228.463 681.47 227.14 685.395 227.14Z" fill="white"/>
<path d="M604.117 227.012C614.272 227.012 622.208 230.212 627.925 236.612C633.642 242.927 636.501 251.716 636.501 262.98C636.501 270.148 635.178 276.463 632.533 281.924C629.973 287.3 626.218 291.481 621.269 294.468C616.405 297.455 610.645 298.948 603.989 298.948C593.834 298.948 585.856 295.791 580.053 289.476C574.336 283.076 571.477 274.244 571.477 262.98C571.477 255.812 572.757 249.54 575.317 244.164C577.962 238.703 581.717 234.479 586.581 231.492C591.53 228.505 597.376 227.012 604.117 227.012ZM604.117 240.58C599.509 240.58 596.053 242.415 593.749 246.084C591.53 249.668 590.421 255.3 590.421 262.98C590.421 270.66 591.53 276.335 593.749 280.004C596.053 283.588 599.466 285.38 603.989 285.38C608.512 285.38 611.882 283.588 614.101 280.004C616.405 276.335 617.557 270.66 617.557 262.98C617.557 255.3 616.448 249.668 614.229 246.084C612.01 242.415 608.64 240.58 604.117 240.58Z" fill="white"/>
<path d="M536.851 227.012C546.408 227.012 554.6 229.743 561.427 235.204L554.515 245.572C548.798 241.988 543.166 240.196 537.619 240.196C534.632 240.196 532.328 240.751 530.707 241.86C529.086 242.969 528.275 244.463 528.275 246.34C528.275 247.705 528.616 248.857 529.299 249.796C530.067 250.735 531.432 251.631 533.395 252.484C535.443 253.337 538.472 254.361 542.483 255.556C549.651 257.519 554.984 260.164 558.483 263.492C561.982 266.735 563.731 271.215 563.731 276.932C563.731 281.455 562.408 285.38 559.763 288.708C557.203 292.036 553.704 294.596 549.267 296.388C544.83 298.095 539.88 298.948 534.419 298.948C528.702 298.948 523.496 298.095 518.803 296.388C514.11 294.596 510.099 292.164 506.771 289.092L515.731 279.108C521.448 283.545 527.507 285.764 533.907 285.764C537.32 285.764 540.008 285.124 541.971 283.844C544.019 282.479 545.043 280.644 545.043 278.34C545.043 276.548 544.659 275.14 543.891 274.116C543.123 273.092 541.715 272.153 539.667 271.3C537.619 270.361 534.419 269.295 530.067 268.1C523.24 266.223 518.163 263.577 514.835 260.164C511.592 256.665 509.971 252.356 509.971 247.236C509.971 243.396 511.08 239.94 513.299 236.868C515.518 233.796 518.632 231.407 522.643 229.7C526.739 227.908 531.475 227.012 536.851 227.012Z" fill="white"/>
<path d="M463.749 144V296.9H445.573V146.05L463.749 144ZM504.965 229.06L483.333 258.884L506.885 296.9H486.277L464.389 259.78L486.149 229.06H504.965Z" fill="white"/>
<path d="M413.384 227C417.907 227 421.96 227.683 425.544 229.048C429.213 230.328 432.669 232.376 435.912 235.192L427.976 245.944C425.757 244.237 423.581 243 421.448 242.232C419.4 241.464 417.139 241.08 414.664 241.08C405.021 241.08 400.2 248.504 400.2 263.352C400.2 270.861 401.437 276.237 403.912 279.48C406.387 282.723 409.928 284.344 414.536 284.344C416.925 284.344 419.101 284.003 421.064 283.32C423.027 282.552 425.331 281.315 427.976 279.608L435.912 291C429.427 296.291 422.003 298.936 413.64 298.936C406.984 298.936 401.181 297.485 396.232 294.584C391.368 291.683 387.613 287.587 384.968 282.296C382.323 276.92 381 270.648 381 263.48C381 256.312 382.323 249.997 384.968 244.536C387.613 238.989 391.368 234.68 396.232 231.608C401.181 228.536 406.899 227 413.384 227Z" fill="white"/>
<path d="M261.748 262.212H252.148V352.9H233.332V208.324H260.98C272.841 208.324 281.759 210.543 287.732 214.98C293.705 219.332 296.692 225.945 296.692 234.82C296.692 240.623 295.241 245.401 292.34 249.156C289.524 252.911 285.129 256.111 279.156 258.756L302.068 296.9H280.692L261.748 262.212ZM252.148 248.9H262.004C267.039 248.9 270.836 247.791 273.396 245.572C275.956 243.268 277.236 239.684 277.236 234.82C277.236 230.297 275.871 227.012 273.14 224.964C270.495 222.831 266.313 221.764 260.596 221.764H252.148V248.9Z" fill="white"/>
<path d="M188.542 261.444C188.542 262.297 188.414 264.644 188.158 268.484H145.79C146.387 274.628 148.051 278.98 150.782 281.54C153.513 284.1 157.225 285.38 161.918 285.38C164.819 285.38 167.55 284.911 170.11 283.972C172.67 283.033 175.443 281.54 178.43 279.492L185.982 289.732C178.387 295.876 169.811 298.948 160.254 298.948C149.587 298.948 141.395 295.748 135.678 289.348C129.961 282.948 127.102 274.287 127.102 263.364C127.102 256.452 128.297 250.265 130.686 244.804C133.161 239.257 136.702 234.905 141.31 231.748C146.003 228.591 151.55 227.012 157.95 227.012C167.593 227.012 175.102 230.041 180.478 236.1C185.854 242.159 188.542 250.607 188.542 261.444ZM170.494 256.324C170.494 245.06 166.441 239.428 158.334 239.428C154.579 239.428 151.635 240.836 149.502 243.652C147.454 246.383 146.217 250.863 145.79 257.092H170.494V256.324Z" fill="white"/>
<path d="M94.961 227.012C100.849 227.012 105.457 228.847 108.785 232.516C112.198 236.1 113.905 241.092 113.905 247.492V296.9H95.729V250.564C95.729 246.895 95.089 244.335 93.809 242.884C92.529 241.348 90.6943 240.58 88.305 240.58C83.5263 240.58 79.1743 243.695 75.249 249.924V296.9H57.073V202.052L75.249 200.132V236.74C77.9797 233.497 80.9237 231.065 84.081 229.444C87.3237 227.823 90.9503 227.012 94.961 227.012Z" fill="white"/>
<path d="M49.024 293.7C46.5493 295.407 43.7333 296.687 40.576 297.54C37.504 298.479 34.432 298.948 31.36 298.948C24.3627 298.863 19.072 296.857 15.488 292.932C11.904 289.007 10.112 283.247 10.112 275.652V241.86H0V229.06H10.112V214.212L28.288 212.036V229.06H43.904L42.112 241.86H28.288V275.268C28.288 278.511 28.8427 280.857 29.952 282.308C31.0613 283.759 32.768 284.484 35.072 284.484C37.376 284.484 39.936 283.716 42.752 282.18L49.024 293.7Z" fill="white"/>
</svg>
