<svg width="749" height="421" viewBox="0 0 749 421" fill="none" xmlns="http://www.w3.org/2000/svg">
<path d="M336.8 0C451.012 0 543.6 94.1997 543.6 210.4C543.599 326.601 451.012 420.8 336.8 420.8C222.588 420.8 130 326.601 130 210.4C130 94.1997 222.587 0.0001091 336.8 0ZM336.002 191.236C325.618 191.257 317.216 199.691 317.236 210.075C317.257 220.459 325.691 228.861 336.075 228.841C346.459 228.821 354.861 220.386 354.841 210.002C354.821 199.618 346.386 191.216 336.002 191.236Z" fill="#856931" fill-opacity="0.8"/>
<circle opacity="0.7" cx="336.8" cy="210" r="33" stroke="#624918" stroke-width="2"/>
<circle opacity="0.5" cx="336.8" cy="210" r="29.25" stroke="#624918" stroke-width="1.5"/>
<circle opacity="0.6" cx="336.8" cy="210" r="37.25" stroke="#624918" stroke-width="1.5"/>
<circle cx="336.8" cy="210" r="41" stroke="#624918" stroke-width="2"/>
<circle cx="336.8" cy="210" r="45" stroke="#624918" stroke-width="2"/>
<circle cx="336.8" cy="210" r="48.75" stroke="#624918" stroke-width="2.5"/>
<circle cx="336.8" cy="210" r="53.25" stroke="#624918" stroke-width="1.5"/>
<circle cx="336.8" cy="210" r="57" stroke="#624918" stroke-width="2"/>
<circle cx="336.8" cy="210" r="60.5" stroke="#624918" stroke-width="3"/>
<circle opacity="0.7" cx="336.8" cy="210" r="65.25" stroke="#624918" stroke-width="1.5"/>
<circle opacity="0.6" cx="336.8" cy="210" r="69" stroke="#624918" stroke-width="2"/>
<circle opacity="0.8" cx="336.8" cy="210" r="73.25" stroke="#624918" stroke-width="1.5"/>
<circle cx="336.8" cy="210" r="77" stroke="#624918" stroke-width="2"/>
<circle cx="336.8" cy="210" r="80.75" stroke="#624918" stroke-width="2.5"/>
<circle cx="336.8" cy="210" r="85.25" stroke="#624918" stroke-width="1.5"/>
<circle cx="336.8" cy="210" r="88.5" stroke="#624918" stroke-width="3"/>
<circle cx="336.8" cy="210" r="93.25" stroke="#624918" stroke-width="1.5"/>
<circle cx="336.8" cy="210" r="97" stroke="#624918" stroke-width="2"/>
<circle cx="336.8" cy="210" r="100.75" stroke="#624918" stroke-width="2.5"/>
<circle opacity="0.9" cx="336.8" cy="210" r="105.25" stroke="#624918" stroke-width="1.5"/>
<circle opacity="0.8" cx="336.8" cy="210" r="108.5" stroke="#624918" stroke-width="3"/>
<circle cx="336.8" cy="210" r="113.25" stroke="#624918" stroke-opacity="0.7" stroke-width="1.5"/>
<circle cx="336.8" cy="210" r="117" stroke="#624918" stroke-opacity="0.6" stroke-width="2"/>
<circle cx="336.8" cy="210" r="120.75" stroke="#624918" stroke-opacity="0.8" stroke-width="2.5"/>
<circle cx="336.8" cy="210" r="125.25" stroke="#624918" stroke-opacity="0.7" stroke-width="1.5"/>
<circle opacity="0.6" cx="336.8" cy="210" r="129" stroke="#624918" stroke-width="2"/>
<circle cx="336.8" cy="210" r="133.25" stroke="#624918" stroke-opacity="0.7" stroke-width="1.5"/>
<circle cx="336.8" cy="210" r="136.5" stroke="#624918" stroke-opacity="0.6" stroke-width="3"/>
<circle cx="336.8" cy="210" r="141" stroke="#624918" stroke-opacity="0.7" stroke-width="2"/>
<circle cx="336.8" cy="210" r="145" stroke="#624918" stroke-opacity="0.8" stroke-width="2"/>
<circle cx="336.8" cy="210" r="149.25" stroke="#624918" stroke-width="1.5"/>
<circle cx="336.8" cy="210" r="153.5" stroke="#624918"/>
<circle cx="336.8" cy="210" r="157" stroke="#624918" stroke-width="2"/>
<circle cx="336.8" cy="210" r="161.25" stroke="#624918" stroke-width="1.5"/>
<circle cx="336.8" cy="210" r="164.75" stroke="#624918" stroke-width="2.5"/>
<circle cx="336.8" cy="210" r="169" stroke="#624918" stroke-width="2"/>
<circle cx="336.8" cy="210" r="172.5" stroke="#624918" stroke-width="3"/>
<circle cx="336.8" cy="210" r="177" stroke="#624918" stroke-width="2"/>
<circle cx="336.8" cy="210" r="181" stroke="#624918" stroke-width="2"/>
<circle cx="336.8" cy="210" r="185" stroke="#624918" stroke-width="2"/>
<circle cx="336.8" cy="210" r="188.5" stroke="#624918" stroke-opacity="0.6" stroke-width="3"/>
<circle cx="336.8" cy="210" r="193.25" stroke="#624918" stroke-opacity="0.5" stroke-width="1.5"/>
<circle cx="336.8" cy="210" r="197" stroke="#624918" stroke-opacity="0.6" stroke-width="2"/>
<circle cx="336.8" cy="210" r="200.75" stroke="#624918" stroke-opacity="0.8" stroke-width="2.5"/>
<circle cx="336.8" cy="210" r="205" stroke="#624918" stroke-opacity="0.5" stroke-width="2"/>
<mask id="path-47-inside-1_19_1323" fill="white">
<path d="M354.57 210C354.57 200.296 346.704 192.43 337 192.43C327.296 192.43 319.43 200.296 319.43 210C319.43 219.704 327.296 227.57 337 227.57V245C317.67 245 302 229.33 302 210C302 190.67 317.67 175 337 175C356.33 175 372 190.67 372 210C372 229.33 356.33 245 337 245V227.57C346.704 227.57 354.57 219.704 354.57 210Z"/>
</mask>
<path d="M337 227.57H313.5V245H337H360.5V227.57H337ZM354.57 210H401.57C401.57 174.339 372.661 145.43 337 145.43V192.43V239.43C320.746 239.43 307.57 226.254 307.57 210H354.57ZM337 192.43V145.43C301.339 145.43 272.43 174.339 272.43 210H319.43H366.43C366.43 226.254 353.254 239.43 337 239.43V192.43ZM319.43 210H272.43C272.43 245.661 301.339 274.57 337 274.57V227.57V180.57C353.254 180.57 366.43 193.746 366.43 210H319.43ZM337 245V198C343.627 198 349 203.373 349 210H302H255C255 255.287 291.713 292 337 292V245ZM302 210H349C349 216.627 343.627 222 337 222V175V128C291.713 128 255 164.713 255 210H302ZM337 175V222C330.373 222 325 216.627 325 210H372H419C419 164.713 382.287 128 337 128V175ZM372 210H325C325 203.373 330.373 198 337 198V245V292C382.287 292 419 255.287 419 210H372ZM337 227.57V274.57C372.661 274.57 401.57 245.661 401.57 210H354.57H307.57C307.57 193.746 320.746 180.57 337 180.57V227.57Z" fill="#624918" mask="url(#path-47-inside-1_19_1323)"/>
<path d="M722.101 174.012C731.658 174.012 739.85 176.743 746.677 182.204L739.765 192.572C734.048 188.988 728.416 187.196 722.869 187.196C719.882 187.196 717.578 187.751 715.957 188.86C714.336 189.969 713.525 191.463 713.525 193.34C713.525 194.705 713.866 195.857 714.549 196.796C715.317 197.735 716.682 198.631 718.645 199.484C720.693 200.337 723.722 201.361 727.733 202.556C734.901 204.519 740.234 207.164 743.733 210.492C747.232 213.735 748.981 218.215 748.981 223.932C748.981 228.455 747.658 232.38 745.013 235.708C742.453 239.036 738.954 241.596 734.517 243.388C730.08 245.095 725.13 245.948 719.669 245.948C713.952 245.948 708.746 245.095 704.053 243.388C699.36 241.596 695.349 239.164 692.021 236.092L700.981 226.108C706.698 230.545 712.757 232.764 719.157 232.764C722.57 232.764 725.258 232.124 727.221 230.844C729.269 229.479 730.293 227.644 730.293 225.34C730.293 223.548 729.909 222.14 729.141 221.116C728.373 220.092 726.965 219.153 724.917 218.3C722.869 217.361 719.669 216.295 715.317 215.1C708.49 213.223 703.413 210.577 700.085 207.164C696.842 203.665 695.221 199.356 695.221 194.236C695.221 190.396 696.33 186.94 698.549 183.868C700.768 180.796 703.882 178.407 707.893 176.7C711.989 174.908 716.725 174.012 722.101 174.012Z" fill="white"/>
<path d="M685.395 174.14C687.443 174.14 689.705 174.481 692.179 175.164L689.107 192.7C686.718 192.103 684.713 191.804 683.091 191.804C679.081 191.804 675.966 193.212 673.747 196.028C671.529 198.844 669.779 203.111 668.499 208.828V243.9H650.323V176.06H666.067L667.731 189.244C669.353 184.465 671.699 180.753 674.771 178.108C677.929 175.463 681.47 174.14 685.395 174.14Z" fill="white"/>
<path d="M604.117 174.012C614.272 174.012 622.208 177.212 627.925 183.612C633.642 189.927 636.501 198.716 636.501 209.98C636.501 217.148 635.178 223.463 632.533 228.924C629.973 234.3 626.218 238.481 621.269 241.468C616.405 244.455 610.645 245.948 603.989 245.948C593.834 245.948 585.856 242.791 580.053 236.476C574.336 230.076 571.477 221.244 571.477 209.98C571.477 202.812 572.757 196.54 575.317 191.164C577.962 185.703 581.717 181.479 586.581 178.492C591.53 175.505 597.376 174.012 604.117 174.012ZM604.117 187.58C599.509 187.58 596.053 189.415 593.749 193.084C591.53 196.668 590.421 202.3 590.421 209.98C590.421 217.66 591.53 223.335 593.749 227.004C596.053 230.588 599.466 232.38 603.989 232.38C608.512 232.38 611.882 230.588 614.101 227.004C616.405 223.335 617.557 217.66 617.557 209.98C617.557 202.3 616.448 196.668 614.229 193.084C612.01 189.415 608.64 187.58 604.117 187.58Z" fill="white"/>
<path d="M536.851 174.012C546.408 174.012 554.6 176.743 561.427 182.204L554.515 192.572C548.798 188.988 543.166 187.196 537.619 187.196C534.632 187.196 532.328 187.751 530.707 188.86C529.086 189.969 528.275 191.463 528.275 193.34C528.275 194.705 528.616 195.857 529.299 196.796C530.067 197.735 531.432 198.631 533.395 199.484C535.443 200.337 538.472 201.361 542.483 202.556C549.651 204.519 554.984 207.164 558.483 210.492C561.982 213.735 563.731 218.215 563.731 223.932C563.731 228.455 562.408 232.38 559.763 235.708C557.203 239.036 553.704 241.596 549.267 243.388C544.83 245.095 539.88 245.948 534.419 245.948C528.702 245.948 523.496 245.095 518.803 243.388C514.11 241.596 510.099 239.164 506.771 236.092L515.731 226.108C521.448 230.545 527.507 232.764 533.907 232.764C537.32 232.764 540.008 232.124 541.971 230.844C544.019 229.479 545.043 227.644 545.043 225.34C545.043 223.548 544.659 222.14 543.891 221.116C543.123 220.092 541.715 219.153 539.667 218.3C537.619 217.361 534.419 216.295 530.067 215.1C523.24 213.223 518.163 210.577 514.835 207.164C511.592 203.665 509.971 199.356 509.971 194.236C509.971 190.396 511.08 186.94 513.299 183.868C515.518 180.796 518.632 178.407 522.643 176.7C526.739 174.908 531.475 174.012 536.851 174.012Z" fill="white"/>
<path d="M463.749 91V243.9H445.573V93.05L463.749 91ZM504.965 176.06L483.333 205.884L506.885 243.9H486.277L464.389 206.78L486.149 176.06H504.965Z" fill="white"/>
<path d="M413.384 174C417.907 174 421.96 174.683 425.544 176.048C429.213 177.328 432.669 179.376 435.912 182.192L427.976 192.944C425.757 191.237 423.581 190 421.448 189.232C419.4 188.464 417.139 188.08 414.664 188.08C405.021 188.08 400.2 195.504 400.2 210.352C400.2 217.861 401.437 223.237 403.912 226.48C406.387 229.723 409.928 231.344 414.536 231.344C416.925 231.344 419.101 231.003 421.064 230.32C423.027 229.552 425.331 228.315 427.976 226.608L435.912 238C429.427 243.291 422.003 245.936 413.64 245.936C406.984 245.936 401.181 244.485 396.232 241.584C391.368 238.683 387.613 234.587 384.968 229.296C382.323 223.92 381 217.648 381 210.48C381 203.312 382.323 196.997 384.968 191.536C387.613 185.989 391.368 181.68 396.232 178.608C401.181 175.536 406.899 174 413.384 174Z" fill="white"/>
<path d="M261.748 209.212H252.148V299.9H233.332V155.324H260.98C272.841 155.324 281.759 157.543 287.732 161.98C293.705 166.332 296.692 172.945 296.692 181.82C296.692 187.623 295.241 192.401 292.34 196.156C289.524 199.911 285.129 203.111 279.156 205.756L302.068 243.9H280.692L261.748 209.212ZM252.148 195.9H262.004C267.039 195.9 270.836 194.791 273.396 192.572C275.956 190.268 277.236 186.684 277.236 181.82C277.236 177.297 275.871 174.012 273.14 171.964C270.495 169.831 266.313 168.764 260.596 168.764H252.148V195.9Z" fill="white"/>
<path d="M188.542 208.444C188.542 209.297 188.414 211.644 188.158 215.484H145.79C146.387 221.628 148.051 225.98 150.782 228.54C153.513 231.1 157.225 232.38 161.918 232.38C164.819 232.38 167.55 231.911 170.11 230.972C172.67 230.033 175.443 228.54 178.43 226.492L185.982 236.732C178.387 242.876 169.811 245.948 160.254 245.948C149.587 245.948 141.395 242.748 135.678 236.348C129.961 229.948 127.102 221.287 127.102 210.364C127.102 203.452 128.297 197.265 130.686 191.804C133.161 186.257 136.702 181.905 141.31 178.748C146.003 175.591 151.55 174.012 157.95 174.012C167.593 174.012 175.102 177.041 180.478 183.1C185.854 189.159 188.542 197.607 188.542 208.444ZM170.494 203.324C170.494 192.06 166.441 186.428 158.334 186.428C154.579 186.428 151.635 187.836 149.502 190.652C147.454 193.383 146.217 197.863 145.79 204.092H170.494V203.324Z" fill="white"/>
<path d="M94.9613 174.012C100.849 174.012 105.457 175.847 108.785 179.516C112.199 183.1 113.905 188.092 113.905 194.492V243.9H95.7292V197.564C95.7292 193.895 95.0892 191.335 93.8092 189.884C92.5292 188.348 90.6946 187.58 88.3052 187.58C83.5266 187.58 79.1746 190.695 75.2492 196.924V243.9H57.0732V149.052L75.2492 147.132V183.74C77.9799 180.497 80.9239 178.065 84.0812 176.444C87.3239 174.823 90.9506 174.012 94.9613 174.012Z" fill="white"/>
<path d="M49.024 240.7C46.5493 242.407 43.7333 243.687 40.576 244.54C37.504 245.479 34.432 245.948 31.36 245.948C24.3627 245.863 19.072 243.857 15.488 239.932C11.904 236.007 10.112 230.247 10.112 222.652V188.86H0V176.06H10.112V161.212L28.288 159.036V176.06H43.904L42.112 188.86H28.288V222.268C28.288 225.511 28.8427 227.857 29.952 229.308C31.0613 230.759 32.768 231.484 35.072 231.484C37.376 231.484 39.936 230.716 42.752 229.18L49.024 240.7Z" fill="white"/>
</svg>
