<svg width="749" height="209" viewBox="0 0 749 209" fill="none" xmlns="http://www.w3.org/2000/svg">
<mask id="path-1-inside-1_16_1611" fill="white">
<path d="M354.57 119C354.57 109.296 346.704 101.43 337 101.43C327.296 101.43 319.43 109.296 319.43 119C319.43 128.704 327.296 136.57 337 136.57V154C317.67 154 302 138.33 302 119C302 99.67 317.67 84 337 84C356.33 84 372 99.67 372 119C372 138.33 356.33 154 337 154V136.57C346.704 136.57 354.57 128.704 354.57 119Z"/>
</mask>
<path d="M354.57 119C354.57 109.296 346.704 101.43 337 101.43C327.296 101.43 319.43 109.296 319.43 119C319.43 128.704 327.296 136.57 337 136.57V154C317.67 154 302 138.33 302 119C302 99.67 317.67 84 337 84C356.33 84 372 99.67 372 119C372 138.33 356.33 154 337 154V136.57C346.704 136.57 354.57 128.704 354.57 119Z" fill="#D4AF37"/>
<path d="M337 136.57H313.5V154H337H360.5V136.57H337ZM354.57 119H401.57C401.57 83.339 372.661 54.4297 337 54.4297V101.43V148.43C320.746 148.43 307.57 135.254 307.57 119H354.57ZM337 101.43V54.4297C301.339 54.4297 272.43 83.339 272.43 119H319.43H366.43C366.43 135.254 353.254 148.43 337 148.43V101.43ZM319.43 119H272.43C272.43 154.661 301.339 183.57 337 183.57V136.57V89.5703C353.254 89.5703 366.43 102.746 366.43 119H319.43ZM337 154V107C343.627 107 349 112.373 349 119H302H255C255 164.287 291.713 201 337 201V154ZM302 119H349C349 125.627 343.627 131 337 131V84V37C291.713 37 255 73.7127 255 119H302ZM337 84V131C330.373 131 325 125.627 325 119H372H419C419 73.7127 382.287 37 337 37V84ZM372 119H325C325 112.373 330.373 107 337 107V154V201C382.287 201 419 164.287 419 119H372ZM337 136.57V183.57C372.661 183.57 401.57 154.661 401.57 119H354.57H307.57C307.57 102.746 320.746 89.5703 337 89.5703V136.57Z" fill="#624918" mask="url(#path-1-inside-1_16_1611)"/>
<path d="M722.101 83.012C731.658 83.012 739.85 85.7426 746.677 91.204L739.765 101.572C734.048 97.988 728.416 96.196 722.869 96.196C719.882 96.196 717.578 96.7506 715.957 97.86C714.336 98.9693 713.525 100.463 713.525 102.34C713.525 103.705 713.866 104.857 714.549 105.796C715.317 106.735 716.682 107.631 718.645 108.484C720.693 109.337 723.722 110.361 727.733 111.556C734.901 113.519 740.234 116.164 743.733 119.492C747.232 122.735 748.981 127.215 748.981 132.932C748.981 137.455 747.658 141.38 745.013 144.708C742.453 148.036 738.954 150.596 734.517 152.388C730.08 154.095 725.13 154.948 719.669 154.948C713.952 154.948 708.746 154.095 704.053 152.388C699.36 150.596 695.349 148.164 692.021 145.092L700.981 135.108C706.698 139.545 712.757 141.764 719.157 141.764C722.57 141.764 725.258 141.124 727.221 139.844C729.269 138.479 730.293 136.644 730.293 134.34C730.293 132.548 729.909 131.14 729.141 130.116C728.373 129.092 726.965 128.153 724.917 127.3C722.869 126.361 719.669 125.295 715.317 124.1C708.49 122.223 703.413 119.577 700.085 116.164C696.842 112.665 695.221 108.356 695.221 103.236C695.221 99.396 696.33 95.94 698.549 92.868C700.768 89.796 703.882 87.4066 707.893 85.7C711.989 83.908 716.725 83.012 722.101 83.012Z" fill="#D4AF37"/>
<path d="M685.395 83.14C687.443 83.14 689.705 83.4813 692.179 84.164L689.107 101.7C686.718 101.103 684.713 100.804 683.091 100.804C679.081 100.804 675.966 102.212 673.747 105.028C671.529 107.844 669.779 112.111 668.499 117.828V152.9H650.323V85.06H666.067L667.731 98.244C669.353 93.4653 671.699 89.7533 674.771 87.108C677.929 84.4627 681.47 83.14 685.395 83.14Z" fill="#D4AF37"/>
<path d="M604.117 83.012C614.272 83.012 622.208 86.212 627.925 92.612C633.642 98.9266 636.501 107.716 636.501 118.98C636.501 126.148 635.178 132.463 632.533 137.924C629.973 143.3 626.218 147.481 621.269 150.468C616.405 153.455 610.645 154.948 603.989 154.948C593.834 154.948 585.856 151.791 580.053 145.476C574.336 139.076 571.477 130.244 571.477 118.98C571.477 111.812 572.757 105.54 575.317 100.164C577.962 94.7026 581.717 90.4786 586.581 87.492C591.53 84.5053 597.376 83.012 604.117 83.012ZM604.117 96.58C599.509 96.58 596.053 98.4146 593.749 102.084C591.53 105.668 590.421 111.3 590.421 118.98C590.421 126.66 591.53 132.335 593.749 136.004C596.053 139.588 599.466 141.38 603.989 141.38C608.512 141.38 611.882 139.588 614.101 136.004C616.405 132.335 617.557 126.66 617.557 118.98C617.557 111.3 616.448 105.668 614.229 102.084C612.01 98.4146 608.64 96.58 604.117 96.58Z" fill="#D4AF37"/>
<path d="M536.851 83.012C546.408 83.012 554.6 85.7426 561.427 91.204L554.515 101.572C548.798 97.988 543.166 96.196 537.619 96.196C534.632 96.196 532.328 96.7506 530.707 97.86C529.086 98.9693 528.275 100.463 528.275 102.34C528.275 103.705 528.616 104.857 529.299 105.796C530.067 106.735 531.432 107.631 533.395 108.484C535.443 109.337 538.472 110.361 542.483 111.556C549.651 113.519 554.984 116.164 558.483 119.492C561.982 122.735 563.731 127.215 563.731 132.932C563.731 137.455 562.408 141.38 559.763 144.708C557.203 148.036 553.704 150.596 549.267 152.388C544.83 154.095 539.88 154.948 534.419 154.948C528.702 154.948 523.496 154.095 518.803 152.388C514.11 150.596 510.099 148.164 506.771 145.092L515.731 135.108C521.448 139.545 527.507 141.764 533.907 141.764C537.32 141.764 540.008 141.124 541.971 139.844C544.019 138.479 545.043 136.644 545.043 134.34C545.043 132.548 544.659 131.14 543.891 130.116C543.123 129.092 541.715 128.153 539.667 127.3C537.619 126.361 534.419 125.295 530.067 124.1C523.24 122.223 518.163 119.577 514.835 116.164C511.592 112.665 509.971 108.356 509.971 103.236C509.971 99.396 511.08 95.94 513.299 92.868C515.518 89.796 518.632 87.4066 522.643 85.7C526.739 83.908 531.475 83.012 536.851 83.012Z" fill="#D4AF37"/>
<path d="M463.749 0V152.9H445.573V2.05L463.749 0ZM504.965 85.06L483.333 114.884L506.885 152.9H486.277L464.389 115.78L486.149 85.06H504.965Z" fill="#D4AF37"/>
<path d="M413.384 83C417.907 83 421.96 83.6827 425.544 85.048C429.213 86.328 432.669 88.376 435.912 91.192L427.976 101.944C425.757 100.237 423.581 99 421.448 98.232C419.4 97.464 417.139 97.08 414.664 97.08C405.021 97.08 400.2 104.504 400.2 119.352C400.2 126.861 401.437 132.237 403.912 135.48C406.387 138.723 409.928 140.344 414.536 140.344C416.925 140.344 419.101 140.003 421.064 139.32C423.027 138.552 425.331 137.315 427.976 135.608L435.912 147C429.427 152.291 422.003 154.936 413.64 154.936C406.984 154.936 401.181 153.485 396.232 150.584C391.368 147.683 387.613 143.587 384.968 138.296C382.323 132.92 381 126.648 381 119.48C381 112.312 382.323 105.997 384.968 100.536C387.613 94.9893 391.368 90.68 396.232 87.608C401.181 84.536 406.899 83 413.384 83Z" fill="#D4AF37"/>
<path d="M261.748 118.212H252.148V208.9H233.332V64.324H260.98C272.841 64.324 281.759 66.5426 287.732 70.98C293.705 75.332 296.692 81.9453 296.692 90.82C296.692 96.6226 295.241 101.401 292.34 105.156C289.524 108.911 285.129 112.111 279.156 114.756L302.068 152.9H280.692L261.748 118.212ZM252.148 104.9H262.004C267.039 104.9 270.836 103.791 273.396 101.572C275.956 99.268 277.236 95.684 277.236 90.82C277.236 86.2973 275.871 83.012 273.14 80.964C270.495 78.8306 266.313 77.764 260.596 77.764H252.148V104.9Z" fill="#D4AF37"/>
<path d="M188.542 117.444C188.542 118.297 188.414 120.644 188.158 124.484H145.79C146.387 130.628 148.051 134.98 150.782 137.54C153.513 140.1 157.225 141.38 161.918 141.38C164.819 141.38 167.55 140.911 170.11 139.972C172.67 139.033 175.443 137.54 178.43 135.492L185.982 145.732C178.387 151.876 169.811 154.948 160.254 154.948C149.587 154.948 141.395 151.748 135.678 145.348C129.961 138.948 127.102 130.287 127.102 119.364C127.102 112.452 128.297 106.265 130.686 100.804C133.161 95.2573 136.702 90.9053 141.31 87.748C146.003 84.5906 151.55 83.012 157.95 83.012C167.593 83.012 175.102 86.0413 180.478 92.1C185.854 98.1586 188.542 106.607 188.542 117.444ZM170.494 112.324C170.494 101.06 166.441 95.428 158.334 95.428C154.579 95.428 151.635 96.836 149.502 99.652C147.454 102.383 146.217 106.863 145.79 113.092H170.494V112.324Z" fill="#D4AF37"/>
<path d="M94.9613 83.012C100.849 83.012 105.457 84.8466 108.785 88.516C112.199 92.1 113.905 97.092 113.905 103.492V152.9H95.7292V106.564C95.7292 102.895 95.0892 100.335 93.8092 98.884C92.5292 97.348 90.6946 96.58 88.3052 96.58C83.5266 96.58 79.1746 99.6946 75.2492 105.924V152.9H57.0732V58.052L75.2492 56.132V92.74C77.9799 89.4973 80.9239 87.0653 84.0812 85.444C87.3239 83.8226 90.9506 83.012 94.9613 83.012Z" fill="#D4AF37"/>
<path d="M49.024 149.7C46.5493 151.407 43.7333 152.687 40.576 153.54C37.504 154.479 34.432 154.948 31.36 154.948C24.3627 154.863 19.072 152.857 15.488 148.932C11.904 145.007 10.112 139.247 10.112 131.652V97.86H0V85.06H10.112V70.212L28.288 68.036V85.06H43.904L42.112 97.86H28.288V131.268C28.288 134.511 28.8427 136.857 29.952 138.308C31.0613 139.759 32.768 140.484 35.072 140.484C37.376 140.484 39.936 139.716 42.752 138.18L49.024 149.7Z" fill="#D4AF37"/>
</svg>
